<?xml version="1.0" encoding="UTF-8"?>
<!--Generator: Apple Native CoreSVG 326-->
<!DOCTYPE svg
PUBLIC "-//W3C//DTD SVG 1.1//EN"
       "http://www.w3.org/Graphics/SVG/1.1/DTD/svg11.dtd">
<svg version="1.1" xmlns="http://www.w3.org/2000/svg" xmlns:xlink="http://www.w3.org/1999/xlink" viewBox="0 0 44.5464 44.2197">
 <g>
  <rect height="44.2197" opacity="0" width="44.5464" x="0" y="0"/>
  <path d="M7.19678 44.2046L37.0002 44.2046C41.7866 44.2046 44.2046 41.7808 44.2046 37.0845L44.2046 7.13697C44.2046 2.44067 41.7866 0 37.0002 0L7.19678 0C2.43482 0 0 2.41797 0 7.13697L0 37.0845C0 41.8035 2.43482 44.2046 7.19678 44.2046ZM7.25318 41.1897C4.50147 41.1897 3.02247 39.7368 3.02247 36.9177L3.02247 7.30371C3.02247 4.48463 4.50147 3.02247 7.25318 3.02247L36.9514 3.02247C39.6484 3.02247 41.1821 4.48463 41.1821 7.30371L41.1821 36.9177C41.1821 39.7368 39.6484 41.1897 36.9514 41.1897Z" fill="white" fill-opacity="0.85"/>
  <path d="M36.655 22.0994C36.655 21.6892 36.4883 21.3499 36.1379 20.9995L28.9763 13.8455C28.7195 13.5793 28.386 13.4312 27.9793 13.4312C27.1978 13.4312 26.6226 14.0308 26.6226 14.7971C26.6226 15.2114 26.7876 15.5618 27.0613 15.8262L29.3557 18.0869L32.4023 20.8345L27.8774 20.6694L16.344 20.6694L11.8115 20.8345L14.8413 18.0869L17.1357 15.8262C17.417 15.5618 17.5745 15.2114 17.5745 14.7971C17.5745 14.0308 16.9993 13.4312 16.2253 13.4312C15.811 13.4312 15.4775 13.5793 15.2283 13.8455L8.05908 20.9995C7.70874 21.3499 7.54956 21.6892 7.54956 22.0994C7.54956 22.4834 7.70874 22.8059 8.05908 23.1655L15.2283 30.3608C15.4775 30.6101 15.811 30.7583 16.2253 30.7583C16.9993 30.7583 17.5745 30.1511 17.5745 29.4016C17.5745 28.978 17.4002 28.6445 17.1357 28.3633L14.8413 26.0857L11.8284 23.3718L16.344 23.52L27.8774 23.52L32.3855 23.3718L29.3557 26.0857L27.0613 28.3633C26.8044 28.6445 26.6226 28.978 26.6226 29.4016C26.6226 30.1511 27.1978 30.7583 27.9793 30.7583C28.386 30.7583 28.7195 30.6101 28.9763 30.3608L36.1379 23.1655C36.4883 22.8059 36.655 22.4834 36.655 22.0994Z" fill="white" fill-opacity="0.85"/>
 </g>
</svg>
