<?xml version="1.0" encoding="UTF-8"?>
<!--Generator: Apple Native CoreSVG 326-->
<!DOCTYPE svg
PUBLIC "-//W3C//DTD SVG 1.1//EN"
       "http://www.w3.org/Graphics/SVG/1.1/DTD/svg11.dtd">
<svg version="1.1" xmlns="http://www.w3.org/2000/svg" xmlns:xlink="http://www.w3.org/1999/xlink" viewBox="0 0 65.0715 50.2056">
 <g>
  <rect height="50.2056" opacity="0" width="65.0715" x="0" y="0"/>
  <path d="M23.0044 27.6628C25.064 26.3855 25.1523 23.9067 23.0044 22.6067L4.40772 11.1802C2.40454 9.95166 0 10.7156 0 13.4543L0 36.7983C0 39.5877 2.43823 40.301 4.40772 39.0894ZM21.0732 25.7488L3.83619 36.4272C3.4751 36.6436 2.7378 36.7134 2.7378 35.8457L2.7378 14.4238C2.7378 13.5225 3.50879 13.626 3.83619 13.8423L21.0413 24.4812C21.7349 24.9172 21.5227 25.4761 21.0732 25.7488ZM32.3565 50.2056C33.1043 50.2056 33.762 49.6077 33.762 48.8599L33.762 1.39282C33.762 0.645021 33.1043 0.0639647 32.3565 0.0639647C31.6162 0.0639647 30.9678 0.645021 30.9678 1.39282L30.9678 48.8599C30.9678 49.6077 31.6162 50.2056 32.3565 50.2056ZM60.3128 39.0894C62.2991 40.301 64.7298 39.5877 64.7298 36.7983L64.7298 13.4543C64.7298 10.7156 62.3328 9.95166 60.3128 11.1802L41.7085 22.6067C39.5774 23.9067 39.6489 26.3855 41.7085 27.6628ZM60.8767 36.4272L43.6641 25.7488C43.1902 25.4761 43.0025 24.9172 43.6716 24.4812L60.8767 13.8423C61.221 13.626 61.9751 13.5225 61.9751 14.4238L61.9751 35.8457C61.9751 36.7134 61.2546 36.6436 60.8767 36.4272Z" fill="white" fill-opacity="0.85"/>
 </g>
</svg>
