<?xml version="1.0" encoding="UTF-8"?>
<!--Generator: Apple Native CoreSVG 326-->
<!DOCTYPE svg
PUBLIC "-//W3C//DTD SVG 1.1//EN"
       "http://www.w3.org/Graphics/SVG/1.1/DTD/svg11.dtd">
<svg version="1.1" xmlns="http://www.w3.org/2000/svg" xmlns:xlink="http://www.w3.org/1999/xlink" viewBox="0 0 44.5464 44.2197">
 <g>
  <rect height="44.2197" opacity="0" width="44.5464" x="0" y="0"/>
  <path d="M7.19678 44.2046L37.0002 44.2046C41.7866 44.2046 44.2046 41.7808 44.2046 37.0845L44.2046 7.13697C44.2046 2.44067 41.7866 0 37.0002 0L7.19678 0C2.43482 0 0 2.41797 0 7.13697L0 37.0845C0 41.8035 2.43482 44.2046 7.19678 44.2046ZM7.25318 41.1897C4.50147 41.1897 3.02247 39.7368 3.02247 36.9177L3.02247 7.30371C3.02247 4.48463 4.50147 3.02247 7.25318 3.02247L36.9514 3.02247C39.6484 3.02247 41.1821 4.48463 41.1821 7.30371L41.1821 36.9177C41.1821 39.7368 39.6484 41.1897 36.9514 41.1897Z" fill="white" fill-opacity="0.85"/>
  <path d="M22.1482 7.51758C21.7473 7.51758 21.3987 7.70117 21.0483 8.05151L13.8867 15.1963C13.6375 15.4531 13.48 15.7866 13.48 16.1934C13.48 16.9749 14.0796 17.5501 14.846 17.5501C15.2771 17.5501 15.603 17.385 15.8843 17.1113L18.145 14.8169L20.8757 11.7871L20.7183 16.312L20.7183 27.8455L20.8757 32.3779L18.145 29.3481L15.8843 27.0537C15.603 26.7556 15.2771 26.615 14.846 26.615C14.0796 26.615 13.48 27.1902 13.48 27.9641C13.48 28.3616 13.6375 28.7119 13.8867 28.9612L21.0483 36.1135C21.3987 36.4639 21.7473 36.6475 22.1482 36.6475C22.5247 36.6475 22.864 36.4639 23.2312 36.1135L30.4021 28.9612C30.6514 28.7119 30.7996 28.3616 30.7996 27.9641C30.7996 27.1902 30.2168 26.615 29.4504 26.615C29.0193 26.615 28.6858 26.7725 28.4214 27.0537L26.1438 29.3481L23.4207 32.3611L23.5781 27.8455L23.5781 16.312L23.4207 11.804L26.1438 14.8169L28.4214 17.1113C28.6858 17.3682 29.0193 17.5501 29.4504 17.5501C30.2168 17.5501 30.7996 16.9749 30.7996 16.1934C30.7996 15.7866 30.6514 15.4531 30.4021 15.1963L23.2312 8.05151C22.864 7.70117 22.5247 7.51758 22.1482 7.51758Z" fill="white" fill-opacity="0.85"/>
 </g>
</svg>
