<?xml version="1.0" encoding="UTF-8"?>
<!--Generator: Apple Native CoreSVG 326-->
<!DOCTYPE svg
PUBLIC "-//W3C//DTD SVG 1.1//EN"
       "http://www.w3.org/Graphics/SVG/1.1/DTD/svg11.dtd">
<svg version="1.1" xmlns="http://www.w3.org/2000/svg" xmlns:xlink="http://www.w3.org/1999/xlink" viewBox="0 0 45.9981 45.7051">
 <g>
  <rect height="45.7051" opacity="0" width="45.9981" x="0" y="0"/>
  <path d="M0 12.6387C0 14.3027 1.78028 14.6885 2.82203 13.6299L13.6375 2.81446C14.7507 1.71802 14.2876 0 12.6538 0L1.72217 0C0.650148 0 0 0.693117 0 1.74659ZM5.63282 7.94459L37.6553 40.0217L40.0142 37.7041L7.98414 5.61768ZM45.6563 33.01C45.6563 31.3367 43.876 30.9602 42.825 32.002L32.0095 42.8174C30.9055 43.9307 31.3762 45.6563 33.0024 45.6563L43.9341 45.6563C45.0137 45.6563 45.6563 44.9387 45.6563 43.9097ZM45.6563 12.6387L45.6563 1.74659C45.6563 0.693117 45.0137 0 43.9341 0L33.0024 0C31.3762 0 30.9055 1.71802 32.0095 2.81446L42.825 13.6299C43.876 14.6885 45.6563 14.3027 45.6563 12.6387ZM7.96144 40.0066L40.0386 7.9673L37.6948 5.62525L5.61768 37.6721ZM0 33.01L0 43.9097C0 44.9387 0.650148 45.6563 1.72217 45.6563L12.6538 45.6563C14.2876 45.6563 14.7507 43.9307 13.6375 42.8174L2.82203 32.002C1.78028 30.9602 0 31.3367 0 33.01Z" fill="white" fill-opacity="0.85"/>
 </g>
</svg>
