<?xml version="1.0" encoding="UTF-8"?>
<!--Generator: Apple Native CoreSVG 326-->
<!DOCTYPE svg
PUBLIC "-//W3C//DTD SVG 1.1//EN"
       "http://www.w3.org/Graphics/SVG/1.1/DTD/svg11.dtd">
<svg version="1.1" xmlns="http://www.w3.org/2000/svg" xmlns:xlink="http://www.w3.org/1999/xlink" viewBox="0 0 48.208 36.4087">
 <g>
  <rect height="36.4087" opacity="0" width="48.208" x="0" y="0"/>
  <path d="M16.6772 20.3906C18.5229 19.248 18.5449 17.1826 16.6772 16.04L3.69141 8.10791C1.86768 6.9873 0 7.88818 0 10.0195L0 26.4111C0 28.5864 1.91162 29.4214 3.69141 28.3447ZM14.5459 18.5229L3.36182 25.4443C3.18604 25.5542 2.85645 25.5542 2.85645 25.2246L2.85645 11.2061C2.85645 10.8545 3.22998 10.8984 3.36182 10.9863L14.5459 17.9077C14.9194 18.1714 14.7656 18.3691 14.5459 18.5229ZM23.9282 36.4087C24.6973 36.4087 25.3564 35.8154 25.3564 35.0464L25.3564 1.38428C25.3564 0.615234 24.6973 0.0219727 23.9282 0.0219727C23.1592 0.0219727 22.478 0.615234 22.478 1.38428L22.478 35.0464C22.478 35.8154 23.1592 36.4087 23.9282 36.4087ZM44.165 28.3447C45.9448 29.4214 47.8564 28.5864 47.8564 26.4111L47.8564 10.0195C47.8564 7.88818 45.9888 6.9873 44.165 8.10791L31.1572 16.04C29.2896 17.1826 29.3115 19.248 31.1572 20.3906ZM44.4727 25.4443L33.3105 18.5229C33.0688 18.3691 32.915 18.1714 33.3105 17.9077L44.4727 10.9863C44.6265 10.8984 45 10.8545 45 11.2061L45 25.2246C45 25.5542 44.6704 25.5542 44.4727 25.4443Z" fill="white" fill-opacity="0.85"/>
 </g>
</svg>
