<?xml version="1.0" encoding="UTF-8"?>
<!--Generator: Apple Native CoreSVG 326-->
<!DOCTYPE svg
PUBLIC "-//W3C//DTD SVG 1.1//EN"
       "http://www.w3.org/Graphics/SVG/1.1/DTD/svg11.dtd">
<svg version="1.1" xmlns="http://www.w3.org/2000/svg" xmlns:xlink="http://www.w3.org/1999/xlink" viewBox="0 0 59.4265 46.4307">
 <g>
  <rect height="46.4307" opacity="0" width="59.4265" x="0" y="0"/>
  <path d="M13.0203 23.2031L13.1373 25.4667C7.83138 25.8678 4.9607 28.2111 4.9607 31.8306C4.9607 35.6421 8.14258 38.1758 12.6731 38.1758C14.4999 38.1758 16.2015 37.7698 17.7002 37.0128C18.1646 37.6745 18.6824 38.2945 19.2489 38.8693C17.2086 40.2614 14.6702 41.0947 11.9993 41.0947C5.80469 41.0947 1.52124 37.3845 1.52124 31.9172C1.52124 26.5544 5.48999 23.3696 12.8193 22.7727L13.0435 22.7527ZM18.1925 8.72849C17.4803 9.59243 16.838 10.5141 16.2846 11.4931C15.8256 11.4399 15.345 11.4129 14.845 11.4129C10.377 11.4129 7.29615 13.3235 5.84034 17.5532C5.56324 18.2302 5.09669 18.5359 4.39942 18.5359C3.52271 18.5359 2.89697 17.9421 2.89697 16.9771C2.89697 16.45 3.094 15.7083 3.39209 15.0364C4.97412 11.1211 9.28052 8.40967 14.9124 8.40967C16.0921 8.40967 17.1799 8.51475 18.1925 8.72849Z" fill="white" fill-opacity="0.85"/>
  <path d="M36.2234 46.4063C48.8887 46.4063 59.4265 35.8684 59.4265 23.2031C59.4265 10.5454 48.8643 0 36.199 0C23.5413 0 13.0203 10.5378 13.0203 23.2031C13.0203 35.8684 23.5581 46.4063 36.2234 46.4063ZM36.2234 43.3425C25.0117 43.3425 16.1084 34.4224 16.1084 23.2031C16.1084 11.9839 24.9873 3.04688 36.199 3.04688C47.4031 3.04688 56.3308 11.9839 56.3796 23.2031C56.4041 34.4072 47.4426 43.3425 36.2234 43.3425ZM38.5325 44.5269L42.5007 44.4932L42.5007 17.0789C42.5007 9.50171 37.8059 4.53736 29.9441 3.84326C28.9011 3.7666 27.8547 3.74634 26.8311 3.79761L22.5718 8.03346C24.0955 7.54273 25.7791 7.30787 27.7346 7.30787C34.3957 7.30787 38.3379 11.1101 38.3379 17.4663L38.3379 21.0552L25.1533 21.9331C21.0918 22.2227 17.8752 23.1873 15.5728 24.7949L16.4224 29.1304C18.1008 26.9011 21.2778 25.5525 25.7007 25.2217L38.3379 24.3269L38.3379 29.5168C38.3379 35.5706 33.5225 40.502 27.1067 41.4058L30.4387 44.0005C34.0911 42.6646 36.9951 40.2017 38.3059 37.0899L38.5325 37.0899Z" fill="white" fill-opacity="0.85"/>
 </g>
</svg>
