<?xml version="1.0" encoding="UTF-8"?>
<!--Generator: Apple Native CoreSVG 326-->
<!DOCTYPE svg
PUBLIC "-//W3C//DTD SVG 1.1//EN"
       "http://www.w3.org/Graphics/SVG/1.1/DTD/svg11.dtd">
<svg version="1.1" xmlns="http://www.w3.org/2000/svg" xmlns:xlink="http://www.w3.org/1999/xlink" viewBox="0 0 48.4954 50.3198">
 <g>
  <rect height="50.3198" opacity="0" width="48.4954" x="0" y="0"/>
  <path d="M32.5122 49.9143L46.8154 49.9143C47.6963 49.9143 48.1536 49.4756 48.1536 48.7615C48.1536 48.0305 47.6963 47.6331 46.8154 47.6331L40.9683 47.6331L40.9683 2.25684L46.8154 2.25684C47.6963 2.25684 48.1536 1.84253 48.1536 1.11914C48.1536 0.40503 47.6963 0 46.8154 0L32.5122 0C31.6482 0 31.1985 0.40503 31.1985 1.11914C31.1985 1.84253 31.6482 2.25684 32.5122 2.25684L38.3687 2.25684L38.3687 47.6331L32.5122 47.6331C31.6482 47.6331 31.1985 48.0305 31.1985 48.7615C31.1985 49.4756 31.6482 49.9143 32.5122 49.9143Z" fill="white" fill-opacity="0.85"/>
  <path d="M1.56641 42.6665C2.53492 42.6665 3.01075 42.2918 3.36866 41.2744L7.04786 31.4436L22.2241 31.4436L25.8957 41.2744C26.2537 42.2918 26.7295 42.6665 27.6812 42.6665C28.6648 42.6665 29.2981 42.0745 29.2981 41.1414C29.2981 40.8247 29.24 40.5266 29.0901 40.1182L16.9587 8.3401C16.541 7.23511 15.8049 6.66163 14.636 6.66163C13.5007 6.66163 12.7402 7.20313 12.3394 8.32325L0.208008 40.135C0.0412598 40.5435 0 40.8416 0 41.1582C0 42.0913 0.599611 42.6665 1.56641 42.6665ZM8.02051 28.5786L14.604 10.884L14.7109 10.884L21.302 28.5786Z" fill="white" fill-opacity="0.85"/>
 </g>
</svg>
