<?xml version="1.0" encoding="UTF-8"?>
<!--Generator: Apple Native CoreSVG 326-->
<!DOCTYPE svg
PUBLIC "-//W3C//DTD SVG 1.1//EN"
       "http://www.w3.org/Graphics/SVG/1.1/DTD/svg11.dtd">
<svg version="1.1" xmlns="http://www.w3.org/2000/svg" xmlns:xlink="http://www.w3.org/1999/xlink" viewBox="0 0 28.3219 36.5177">
 <g>
  <rect height="36.5177" opacity="0" width="28.3219" x="0" y="0"/>
  <path d="M4.72415 36.5177L23.2401 36.5177C26.362 36.5177 27.9704 34.8873 27.9704 31.7689L27.9704 15.0935C27.9704 13.594 27.7383 12.919 26.8234 11.9918L16.0911 1.20412C15.2008 0.285645 14.473 0.041306 13.0597 0.041306L4.72415 0.041306C1.64971 0.041306 0 1.67169 0 4.79007L0 31.7689C0 34.8935 1.61807 36.5177 4.72415 36.5177ZM4.79886 35.0305C2.61305 35.0305 1.48718 33.8923 1.48718 31.725L1.48718 4.83402C1.48718 2.74576 2.61305 1.52848 4.80502 1.52848L13.2539 1.52848L13.2539 12.2555C13.2539 14.0344 14.1495 14.8193 15.8177 14.8193L26.4929 14.8193L26.4929 31.725C26.4929 33.8923 25.3512 35.0305 23.1653 35.0305ZM15.9539 13.3875C15.0381 13.3875 14.6795 13.0289 14.6795 12.1289L14.6795 1.86863L26.1527 13.3875Z" fill="white" fill-opacity="0.85"/>
 </g>
</svg>
