<?xml version="1.0" encoding="UTF-8"?>
<!--Generator: Apple Native CoreSVG 326-->
<!DOCTYPE svg
PUBLIC "-//W3C//DTD SVG 1.1//EN"
       "http://www.w3.org/Graphics/SVG/1.1/DTD/svg11.dtd">
<svg version="1.1" xmlns="http://www.w3.org/2000/svg" xmlns:xlink="http://www.w3.org/1999/xlink" viewBox="0 0 29.6191 37.0679">
 <g>
  <rect height="37.0679" opacity="0" width="29.6191" x="0" y="0"/>
  <path d="M5.51514 37.0459L23.7305 37.0459C27.4219 37.0459 29.2676 35.1782 29.2676 31.4429L29.2676 16.1279C29.2676 13.7109 29.0039 12.6562 27.4878 11.0962L18.3691 1.77979C16.9409 0.307617 15.7544 0 13.645 0L5.51514 0C1.82373 0 0 1.86768 0 5.60303L0 31.4429C0 35.2002 1.82373 37.0459 5.51514 37.0459ZM5.66895 33.8818C4.021 33.8818 3.16406 32.981 3.16406 31.3989L3.16406 5.64697C3.16406 4.06494 4.021 3.16406 5.69092 3.16406L13.0957 3.16406L13.0957 12.9419C13.0957 15.2271 14.2603 16.3916 16.5454 16.3916L26.0815 16.3916L26.0815 31.3989C26.0815 32.981 25.2246 33.8818 23.5767 33.8818ZM16.9189 13.4253C16.3037 13.4253 16.04 13.1616 16.04 12.5464L16.04 3.75732L25.4883 13.4253Z" fill="white" fill-opacity="0.85"/>
 </g>
</svg>
