<?xml version="1.0" encoding="UTF-8"?>
<!--Generator: Apple Native CoreSVG 326-->
<!DOCTYPE svg
PUBLIC "-//W3C//DTD SVG 1.1//EN"
       "http://www.w3.org/Graphics/SVG/1.1/DTD/svg11.dtd">
<svg version="1.1" xmlns="http://www.w3.org/2000/svg" xmlns:xlink="http://www.w3.org/1999/xlink" viewBox="0 0 44.5464 44.2197">
 <g>
  <rect height="44.2197" opacity="0" width="44.5464" x="0" y="0"/>
  <path d="M7.19678 44.2046L37.0002 44.2046C41.7866 44.2046 44.2046 41.7808 44.2046 37.0845L44.2046 7.13697C44.2046 2.44067 41.7866 0 37.0002 0L7.19678 0C2.43482 0 0 2.41797 0 7.13697L0 37.0845C0 41.8035 2.43482 44.2046 7.19678 44.2046ZM7.25318 41.1897C4.50147 41.1897 3.02247 39.7368 3.02247 36.9177L3.02247 7.30371C3.02247 4.48463 4.50147 3.02247 7.25318 3.02247L36.9514 3.02247C39.6484 3.02247 41.1821 4.48463 41.1821 7.30371L41.1821 36.9177C41.1821 39.7368 39.6484 41.1897 36.9514 41.1897Z" fill="white" fill-opacity="0.85"/>
  <path d="M22.1145 29.502C26.2119 29.502 29.5188 26.1782 29.5188 22.0977C29.5188 18.0002 26.2119 14.6934 22.1145 14.6934C18.0339 14.6934 14.7102 18.0002 14.7102 22.0977C14.7102 26.1782 18.0339 29.502 22.1145 29.502Z" fill="white" fill-opacity="0.85"/>
 </g>
</svg>
