<?xml version="1.0" encoding="UTF-8"?>
<!--Generator: Apple Native CoreSVG 326-->
<!DOCTYPE svg
PUBLIC "-//W3C//DTD SVG 1.1//EN"
       "http://www.w3.org/Graphics/SVG/1.1/DTD/svg11.dtd">
<svg version="1.1" xmlns="http://www.w3.org/2000/svg" xmlns:xlink="http://www.w3.org/1999/xlink" viewBox="0 0 65.9075 41.4463">
 <g>
  <rect height="41.4463" opacity="0" width="65.9075" x="0" y="0"/>
  <path d="M32.7913 41.4463C52.0335 41.4463 65.5657 25.6326 65.5657 20.7354C65.5657 15.8213 51.9636 0.0319824 32.7913 0.0319824C13.7798 0.0319824 0 15.8213 0 20.7354C0 25.6326 13.7175 41.4463 32.7913 41.4463ZM32.7913 38.3911C16.1802 38.3911 3.36426 24.314 3.36426 20.7354C3.36426 17.5198 16.1802 3.07203 32.7913 3.07203C49.3594 3.07203 62.209 17.5198 62.209 20.7354C62.209 24.314 49.3594 38.3911 32.7913 38.3911ZM32.7913 34.3828C40.3521 34.3828 46.48 28.2549 46.48 20.6941C46.48 13.1333 40.3521 7.00537 32.7913 7.00537C25.2305 7.00537 19.0857 13.1333 19.0857 20.6941C19.0857 28.2549 25.2305 34.3828 32.7913 34.3828ZM32.7913 25.0855C30.3674 25.0855 28.4168 23.1348 28.4168 20.7109C28.4168 18.2871 30.3674 16.3364 32.7913 16.3364C35.2151 16.3364 37.1658 18.2871 37.1658 20.7109C37.1658 23.1348 35.2151 25.0855 32.7913 25.0855Z" fill="white" fill-opacity="0.85"/>
 </g>
</svg>
