<?xml version="1.0" encoding="UTF-8"?>
<!--Generator: Apple Native CoreSVG 326-->
<!DOCTYPE svg
PUBLIC "-//W3C//DTD SVG 1.1//EN"
       "http://www.w3.org/Graphics/SVG/1.1/DTD/svg11.dtd">
<svg version="1.1" xmlns="http://www.w3.org/2000/svg" xmlns:xlink="http://www.w3.org/1999/xlink" viewBox="0 0 58.9309 25.2329">
 <g>
  <rect height="25.2329" opacity="0" width="58.9309" x="0" y="0"/>
  <path d="M58.5891 6.27393C58.5891 2.20996 56.3716 0.00927746 52.2815 0.00927746L6.2815 0.00927746C2.18384 0.00927746 0 2.20996 0 6.27393L0 18.9683C0 23.0247 2.20068 25.2329 6.29834 25.2329L52.2983 25.2329C56.3884 25.2329 58.5891 23.0247 58.5891 18.9683ZM55.5574 6.76246L55.5574 18.4797C55.5574 20.9041 54.219 22.2105 51.8528 22.2105L6.70264 22.2105C4.37012 22.2105 3.02247 20.9041 3.02247 18.4797L3.02247 6.76246C3.02247 4.33814 4.37012 3.02418 6.71949 3.02418L51.8696 3.02418C54.219 3.02418 55.5574 4.33814 55.5574 6.76246ZM8.53907 1.92188L6.81128 1.92188L6.81128 14.4551C6.81128 14.9561 7.18262 15.3181 7.6836 15.3181C8.19385 15.3181 8.53907 14.9468 8.53907 14.4382ZM12.8755 1.92188L11.1477 1.92188L11.1477 10.1809C11.1477 10.7063 11.519 11.0515 12.0032 11.0515C12.5303 11.0515 12.8755 10.697 12.8755 10.1716ZM17.1951 1.92188L15.4504 1.92188L15.4504 10.1809C15.4504 10.7063 15.8386 11.0515 16.3228 11.0515C16.833 11.0515 17.1951 10.697 17.1951 10.1716ZM21.4978 1.92188L19.77 1.92188L19.77 10.1809C19.77 10.7063 20.1414 11.0515 20.6423 11.0515C21.1526 11.0515 21.4978 10.697 21.4978 10.1716ZM25.8342 1.92188L24.1064 1.92188L24.1064 10.1809C24.1064 10.7063 24.4778 11.0515 24.9619 11.0515C25.489 11.0515 25.8342 10.697 25.8342 10.1716ZM30.1782 1.92188L28.4504 1.92188L28.4504 14.4551C28.4504 14.9561 28.8218 15.3181 29.3059 15.3181C29.833 15.3181 30.1782 14.9468 30.1782 14.4382ZM34.4978 1.92188L32.77 1.92188L32.77 10.1809C32.77 10.7063 33.1414 11.0515 33.6255 11.0515C34.1357 11.0515 34.4978 10.697 34.4978 10.1716ZM38.8174 1.92188L37.0896 1.92188L37.0896 10.1809C37.0896 10.7063 37.4609 11.0515 37.9619 11.0515C38.4722 11.0515 38.8174 10.697 38.8174 10.1716ZM43.137 1.92188L41.4092 1.92188L41.4092 10.1809C41.4092 10.7063 41.7805 11.0515 42.2647 11.0515C42.7918 11.0515 43.137 10.697 43.137 10.1716ZM47.4734 1.92188L45.7456 1.92188L45.7456 10.1809C45.7456 10.7063 46.1169 11.0515 46.6011 11.0515C47.1113 11.0515 47.4734 10.697 47.4734 10.1716ZM51.7778 1.92188L50.0501 1.92188L50.0501 14.4551C50.0501 14.9561 50.429 15.3181 50.9224 15.3181C51.4402 15.3181 51.7778 14.9468 51.7778 14.4382Z" fill="white" fill-opacity="0.85"/>
 </g>
</svg>
