<svg width="52" height="16" viewBox="0 0 52 16" fill="none" xmlns="http://www.w3.org/2000/svg">
<path d="M6.46289 12.7077L10.0996 2.84344H11.3164L14.9531 12.7077H13.6611L12.6699 9.88446H8.74609L7.75488 12.7077H6.46289ZM10.6533 4.43622L9.1084 8.83856H12.3076L10.7627 4.43622H10.6533ZM16.6826 12.7077V2.84344H20.4561C22.2676 2.84344 23.375 3.79364 23.375 5.29755V5.31122C23.375 6.32977 22.623 7.25946 21.6729 7.43036V7.53973C23.0195 7.71063 23.874 8.63348 23.874 9.93231V9.94598C23.874 11.6755 22.6299 12.7077 20.5312 12.7077H16.6826ZM20.1963 3.93036H17.9131V7.0954H19.8818C21.3721 7.0954 22.1309 6.56219 22.1309 5.52313V5.50946C22.1309 4.51141 21.4199 3.93036 20.1963 3.93036ZM20.2305 8.15497H17.9131V11.6208H20.3467C21.8301 11.6208 22.6094 11.0192 22.6094 9.88446V9.87079C22.6094 8.73602 21.8027 8.15497 20.2305 8.15497ZM25.1318 12.7077L28.3516 2.84344H31.9883L35.208 12.7077H32.1592L31.6602 10.7458H28.6797L28.1807 12.7077H25.1318ZM30.1016 5.19501L29.2061 8.70184H31.1338L30.2383 5.19501H30.1016ZM36.835 12.7077V2.84344H41.6885C43.7051 2.84344 44.8809 3.7663 44.8809 5.29755V5.31122C44.8809 6.37079 44.0811 7.25946 43.0078 7.39618V7.5329C44.2793 7.56708 45.3252 8.5993 45.3252 9.82977V9.84344C45.3252 11.5661 43.958 12.7077 41.8457 12.7077H36.835ZM40.8955 4.82587H39.7334V6.79462H40.8613C41.5996 6.79462 42.0645 6.40497 42.0645 5.81708V5.80341C42.0645 5.20184 41.6338 4.82587 40.8955 4.82587ZM40.9912 8.45575H39.7334V10.7253H40.9707C41.873 10.7253 42.3721 10.3151 42.3721 9.57684V9.56317C42.3721 8.85907 41.8594 8.45575 40.9912 8.45575Z" fill="black"/>
</svg>
