<svg width="17" height="16" viewBox="0 0 17 16" fill="none" xmlns="http://www.w3.org/2000/svg">
<path d="M12.1213 12.1249C12.51 12.1249 12.8719 12.0467 13.2069 11.8903C13.542 11.7295 13.8257 11.5106 14.0581 11.2336C14.2904 10.9566 14.4468 10.6394 14.5272 10.2819L14.7349 9.3169L12.6239 9.43083C11.9761 9.4621 11.4735 9.60507 11.116 9.85973C10.7631 10.1144 10.5866 10.4562 10.5866 10.8851C10.5866 11.2559 10.7273 11.5552 11.0088 11.7831C11.2947 12.011 11.6656 12.1249 12.1213 12.1249ZM11.88 12.8956C11.4645 12.8956 11.0915 12.8129 10.7608 12.6476C10.4302 12.4823 10.1666 12.2567 9.97006 11.9707C9.77794 11.6803 9.68188 11.3497 9.68188 10.9789C9.68188 10.2953 9.94101 9.75921 10.4593 9.37051C10.9775 8.97735 11.708 8.75843 12.6507 8.71375L14.8891 8.59982L14.9963 8.07709C15.0142 7.99667 15.0253 7.92296 15.0298 7.85594C15.0387 7.78892 15.0432 7.72191 15.0432 7.65489C15.0432 7.25279 14.9002 6.93558 14.6143 6.70326C14.3284 6.47093 13.9263 6.35477 13.408 6.35477C13.0774 6.35477 12.7803 6.40615 12.5167 6.50891C12.2531 6.61167 12.0342 6.75464 11.8599 6.93781C11.6901 7.12099 11.574 7.33768 11.5114 7.58787H10.5799C10.6693 7.18578 10.8457 6.83282 11.1093 6.52901C11.3729 6.22521 11.708 5.99065 12.1146 5.82534C12.5211 5.65557 12.9769 5.57068 13.4817 5.57068C13.9776 5.57068 14.4088 5.65333 14.7751 5.81864C15.1415 5.97948 15.4252 6.20733 15.6262 6.50221C15.8318 6.79708 15.9345 7.1411 15.9345 7.53426C15.9345 7.63702 15.9301 7.73978 15.9211 7.84254C15.9122 7.94083 15.8988 8.03688 15.8809 8.13071L14.8891 12.7749H14.038L14.2591 11.7161L14.2122 11.7094C14.0469 11.9462 13.8436 12.1539 13.6023 12.3326C13.3611 12.5113 13.093 12.6498 12.7981 12.7481C12.5077 12.8464 12.2017 12.8956 11.88 12.8956Z" fill="black"/>
<path d="M6.17005 4.27052L3.44249 9.02198H6.96755L6.22367 4.27052H6.17005ZM7.53719 12.7749L7.08148 9.80608H3.00688L1.29796 12.7749H0.286011L5.969 3.10443H6.86032L8.41511 12.7749H7.53719Z" fill="black"/>
</svg>
