<svg width="52" height="16" viewBox="0 0 52 16" fill="none" xmlns="http://www.w3.org/2000/svg">
<path d="M6.46289 12.7077L10.0996 2.84344H11.3164L14.9531 12.7077H13.6611L12.6699 9.88446H8.74609L7.75488 12.7077H6.46289ZM10.6533 4.43622L9.1084 8.83856H12.3076L10.7627 4.43622H10.6533ZM15.9307 12.7077L19.1504 2.84344H22.7871L26.0068 12.7077H22.958L22.459 10.7458H19.4785L18.9795 12.7077H15.9307ZM20.9004 5.19501L20.0049 8.70184H21.9326L21.0371 5.19501H20.9004ZM27.7568 12.7077V2.84344H31.5303C33.3418 2.84344 34.4492 3.79364 34.4492 5.29755V5.31122C34.4492 6.32977 33.6973 7.25946 32.7471 7.43036V7.53973C34.0938 7.71063 34.9482 8.63348 34.9482 9.93231V9.94598C34.9482 11.6755 33.7041 12.7077 31.6055 12.7077H27.7568ZM31.2705 3.93036H28.9873V7.0954H30.9561C32.4463 7.0954 33.2051 6.56219 33.2051 5.52313V5.50946C33.2051 4.51141 32.4941 3.93036 31.2705 3.93036ZM31.3047 8.15497H28.9873V11.6208H31.4209C32.9043 11.6208 33.6836 11.0192 33.6836 9.88446V9.87079C33.6836 8.73602 32.877 8.15497 31.3047 8.15497ZM36.835 12.7077V2.84344H41.6885C43.7051 2.84344 44.8809 3.7663 44.8809 5.29755V5.31122C44.8809 6.37079 44.0811 7.25946 43.0078 7.39618V7.5329C44.2793 7.56708 45.3252 8.5993 45.3252 9.82977V9.84344C45.3252 11.5661 43.958 12.7077 41.8457 12.7077H36.835ZM40.8955 4.82587H39.7334V6.79462H40.8613C41.5996 6.79462 42.0645 6.40497 42.0645 5.81708V5.80341C42.0645 5.20184 41.6338 4.82587 40.8955 4.82587ZM40.9912 8.45575H39.7334V10.7253H40.9707C41.873 10.7253 42.3721 10.3151 42.3721 9.57684V9.56317C42.3721 8.85907 41.8594 8.45575 40.9912 8.45575Z" fill="black"/>
</svg>
