<?xml version="1.0" encoding="UTF-8"?>
<!--Generator: Apple Native CoreSVG 326-->
<!DOCTYPE svg
PUBLIC "-//W3C//DTD SVG 1.1//EN"
       "http://www.w3.org/Graphics/SVG/1.1/DTD/svg11.dtd">
<svg version="1.1" xmlns="http://www.w3.org/2000/svg" xmlns:xlink="http://www.w3.org/1999/xlink" viewBox="0 0 30.9894 30.666">
 <g>
  <rect height="30.666" opacity="0" width="30.9894" x="0" y="0"/>
  <path d="M15.322 5.90106C15.9162 5.90106 16.3881 5.42292 16.3881 4.82877C16.3881 4.23462 15.9162 3.76263 15.322 3.76263C14.7278 3.76263 14.2497 4.23462 14.2497 4.82877C14.2497 5.42292 14.7278 5.90106 15.322 5.90106ZM15.322 11.1525C15.9162 11.1525 16.3881 10.6647 16.3881 10.0706C16.3881 9.49222 15.9162 9.00442 15.322 9.00442C14.7278 9.00442 14.2497 9.49222 14.2497 10.0706C14.2497 10.6647 14.7278 11.1525 15.322 11.1525ZM15.322 16.3881C15.9162 16.3881 16.3881 15.9162 16.3881 15.322C16.3881 14.7278 15.9162 14.2559 15.322 14.2559C14.7278 14.2559 14.2497 14.7278 14.2497 15.322C14.2497 15.9162 14.7278 16.3881 15.322 16.3881ZM15.322 21.6396C15.9162 21.6396 16.3881 21.1518 16.3881 20.5734C16.3881 19.9793 15.9162 19.4915 15.322 19.4915C14.7278 19.4915 14.2497 19.9793 14.2497 20.5734C14.2497 21.1518 14.7278 21.6396 15.322 21.6396ZM15.322 26.8814C15.9162 26.8814 16.3881 26.4094 16.3881 25.8152C16.3881 25.2211 15.9162 24.7429 15.322 24.7429C14.7278 24.7429 14.2497 25.2211 14.2497 25.8152C14.2497 26.4094 14.7278 26.8814 15.322 26.8814ZM4.82877 16.3881C5.42292 16.3881 5.89491 15.9162 5.89491 15.322C5.89491 14.7278 5.42292 14.2559 4.82877 14.2559C4.23462 14.2559 3.76263 14.7278 3.76263 15.322C3.76263 15.9162 4.23462 16.3881 4.82877 16.3881ZM10.0802 16.3881C10.6586 16.3881 11.1464 15.9162 11.1464 15.322C11.1464 14.7278 10.6586 14.2559 10.0802 14.2559C9.48607 14.2559 8.99826 14.7278 8.99826 15.322C8.99826 15.9162 9.48607 16.3881 10.0802 16.3881ZM20.5734 16.3881C21.1518 16.3881 21.6396 15.9162 21.6396 15.322C21.6396 14.7278 21.1518 14.2559 20.5734 14.2559C19.9793 14.2559 19.4915 14.7278 19.4915 15.322C19.4915 15.9162 19.9793 16.3881 20.5734 16.3881ZM25.8091 16.3881C26.4032 16.3881 26.8752 15.9162 26.8752 15.322C26.8752 14.7278 26.4032 14.2559 25.8091 14.2559C25.2307 14.2559 24.7429 14.7278 24.7429 15.322C24.7429 15.9162 25.2307 16.3881 25.8091 16.3881ZM0 29.6816C0 30.2661 0.371786 30.644 0.956272 30.644L29.6816 30.644C30.2661 30.644 30.6378 30.2661 30.6378 29.6816L30.6378 0.962425C30.6378 0.377939 30.2661 0 29.6816 0L0.956272 0C0.371786 0 0 0.377939 0 0.962425ZM1.48718 28.7815L1.48718 1.86248C1.48718 1.62517 1.61901 1.49333 1.86248 1.49333L28.7815 1.49333C29.0188 1.49333 29.1507 1.62517 29.1507 1.86248L29.1507 28.7815C29.1507 29.0188 29.0188 29.1507 28.7815 29.1507L1.86248 29.1507C1.61901 29.1507 1.48718 29.0188 1.48718 28.7815Z" fill="white" fill-opacity="0.85"/>
 </g>
</svg>
