<?xml version="1.0" encoding="UTF-8"?>
<!--Generator: Apple Native CoreSVG 326-->
<!DOCTYPE svg
PUBLIC "-//W3C//DTD SVG 1.1//EN"
       "http://www.w3.org/Graphics/SVG/1.1/DTD/svg11.dtd">
<svg version="1.1" xmlns="http://www.w3.org/2000/svg" xmlns:xlink="http://www.w3.org/1999/xlink" viewBox="0 0 44.5464 44.2383">
 <g>
  <rect height="44.2383" opacity="0" width="44.5464" x="0" y="0"/>
  <path d="M22.1069 9.44019C23.103 9.44019 23.919 8.62428 23.919 7.63575C23.919 6.63965 23.103 5.82373 22.1069 5.82373C21.1184 5.82373 20.3025 6.63965 20.3025 7.63575C20.3025 8.62428 21.1184 9.44019 22.1069 9.44019ZM22.1069 16.6758C23.103 16.6758 23.919 15.8599 23.919 14.8713C23.919 13.8752 23.103 13.0593 22.1069 13.0593C21.1184 13.0593 20.3025 13.8752 20.3025 14.8713C20.3025 15.8599 21.1184 16.6758 22.1069 16.6758ZM22.1069 23.919C23.103 23.919 23.919 23.0955 23.919 22.1069C23.919 21.1184 23.103 20.2949 22.1069 20.2949C21.1184 20.2949 20.3025 21.1184 20.3025 22.1069C20.3025 23.0955 21.1184 23.919 22.1069 23.919ZM22.1069 31.1545C23.103 31.1545 23.919 30.3311 23.919 29.3425C23.919 28.354 23.103 27.5305 22.1069 27.5305C21.1184 27.5305 20.3025 28.354 20.3025 29.3425C20.3025 30.3311 21.1184 31.1545 22.1069 31.1545ZM22.1069 38.3733C23.103 38.3733 23.919 37.5498 23.919 36.5613C23.919 35.5728 23.103 34.7493 22.1069 34.7493C21.1184 34.7493 20.3025 35.5728 20.3025 36.5613C20.3025 37.5498 21.1184 38.3733 22.1069 38.3733ZM7.63575 23.919C8.62428 23.919 9.44776 23.0955 9.44776 22.1069C9.44776 21.1184 8.62428 20.2949 7.63575 20.2949C6.64722 20.2949 5.82373 21.1184 5.82373 22.1069C5.82373 23.0955 6.64722 23.919 7.63575 23.919ZM14.8713 23.919C15.8599 23.919 16.6834 23.0955 16.6834 22.1069C16.6834 21.1184 15.8599 20.2949 14.8713 20.2949C13.8828 20.2949 13.0593 21.1184 13.0593 22.1069C13.0593 23.0955 13.8828 23.919 14.8713 23.919ZM29.3257 23.919C30.3218 23.919 31.1377 23.0955 31.1377 22.1069C31.1377 21.1184 30.3218 20.2949 29.3257 20.2949C28.3372 20.2949 27.5212 21.1184 27.5212 22.1069C27.5212 23.0955 28.3372 23.919 29.3257 23.919ZM36.5688 23.919C37.5574 23.919 38.3733 23.0955 38.3733 22.1069C38.3733 21.1184 37.5574 20.2949 36.5688 20.2949C35.5728 20.2949 34.7568 21.1184 34.7568 22.1069C34.7568 23.0955 35.5728 23.919 36.5688 23.919ZM0 42.5559C0 43.5613 0.652589 44.197 1.65796 44.197L42.5559 44.197C43.5613 44.197 44.2046 43.5613 44.2046 42.5559L44.2046 1.65796C44.2046 0.652589 43.5613 0 42.5559 0L1.65796 0C0.652589 0 0 0.652589 0 1.65796ZM3.02247 40.5498L3.02247 3.63966C3.02247 3.21021 3.21021 3.0149 3.64722 3.0149L40.5574 3.0149C41.0037 3.0149 41.1821 3.21021 41.1821 3.63966L41.1821 40.5498C41.1821 41.0037 41.0037 41.1821 40.5574 41.1821L3.64722 41.1821C3.21021 41.1821 3.02247 41.0037 3.02247 40.5498Z" fill="white" fill-opacity="0.85"/>
 </g>
</svg>
