<?xml version="1.0" encoding="UTF-8"?>
<!--Generator: Apple Native CoreSVG 326-->
<!DOCTYPE svg
PUBLIC "-//W3C//DTD SVG 1.1//EN"
       "http://www.w3.org/Graphics/SVG/1.1/DTD/svg11.dtd">
<svg version="1.1" xmlns="http://www.w3.org/2000/svg" xmlns:xlink="http://www.w3.org/1999/xlink" viewBox="0 0 32.3657 32.0581">
 <g>
  <rect height="32.0581" opacity="0" width="32.3657" x="0" y="0"/>
  <path d="M16.0181 7.91016C16.897 7.91016 17.6221 7.16309 17.6221 6.28418C17.6221 5.40527 16.897 4.68018 16.0181 4.68018C15.1392 4.68018 14.3921 5.40527 14.3921 6.28418C14.3921 7.16309 15.1392 7.91016 16.0181 7.91016ZM16.0181 12.7661C16.897 12.7661 17.6221 12.041 17.6221 11.1621C17.6221 10.2832 16.897 9.55811 16.0181 9.55811C15.1392 9.55811 14.3921 10.2832 14.3921 11.1621C14.3921 12.041 15.1392 12.7661 16.0181 12.7661ZM16.0181 17.6221C16.897 17.6221 17.6221 16.897 17.6221 16.0181C17.6221 15.1392 16.897 14.4141 16.0181 14.4141C15.1392 14.4141 14.3921 15.1392 14.3921 16.0181C14.3921 16.897 15.1392 17.6221 16.0181 17.6221ZM16.0181 22.478C16.897 22.478 17.6221 21.7529 17.6221 20.874C17.6221 19.9951 16.897 19.27 16.0181 19.27C15.1392 19.27 14.3921 19.9951 14.3921 20.874C14.3921 21.7529 15.1392 22.478 16.0181 22.478ZM16.0181 27.356C16.897 27.356 17.6221 26.6309 17.6221 25.752C17.6221 24.873 16.897 24.126 16.0181 24.126C15.1392 24.126 14.3921 24.873 14.3921 25.752C14.3921 26.6309 15.1392 27.356 16.0181 27.356ZM6.28418 17.6221C7.16309 17.6221 7.88818 16.897 7.88818 16.0181C7.88818 15.1392 7.16309 14.4141 6.28418 14.4141C5.40527 14.4141 4.68018 15.1392 4.68018 16.0181C4.68018 16.897 5.40527 17.6221 6.28418 17.6221ZM11.1401 17.6221C12.019 17.6221 12.7441 16.897 12.7441 16.0181C12.7441 15.1392 12.019 14.4141 11.1401 14.4141C10.2612 14.4141 9.53613 15.1392 9.53613 16.0181C9.53613 16.897 10.2612 17.6221 11.1401 17.6221ZM20.874 17.6221C21.7529 17.6221 22.478 16.897 22.478 16.0181C22.478 15.1392 21.7529 14.4141 20.874 14.4141C19.9951 14.4141 19.27 15.1392 19.27 16.0181C19.27 16.897 19.9951 17.6221 20.874 17.6221ZM25.73 17.6221C26.6089 17.6221 27.334 16.897 27.334 16.0181C27.334 15.1392 26.6089 14.4141 25.73 14.4141C24.8511 14.4141 24.126 15.1392 24.126 16.0181C24.126 16.897 24.8511 17.6221 25.73 17.6221ZM0 30.52C0 31.4209 0.593262 32.0361 1.49414 32.0361L30.52 32.0361C31.4209 32.0361 32.0142 31.4209 32.0142 30.52L32.0142 1.51611C32.0142 0.615234 31.4209 0 30.52 0L1.49414 0C0.593262 0 0 0.615234 0 1.51611ZM3.16406 28.3228L3.16406 3.71338C3.16406 3.31787 3.2959 3.18604 3.71338 3.18604L28.3228 3.18604C28.7183 3.18604 28.8501 3.31787 28.8501 3.71338L28.8501 28.3228C28.8501 28.7183 28.7183 28.8501 28.3228 28.8501L3.71338 28.8501C3.2959 28.8501 3.16406 28.7183 3.16406 28.3228Z" fill="white" fill-opacity="0.85"/>
 </g>
</svg>
