<?xml version="1.0" encoding="UTF-8"?>
<!--Generator: Apple Native CoreSVG 326-->
<!DOCTYPE svg
PUBLIC "-//W3C//DTD SVG 1.1//EN"
       "http://www.w3.org/Graphics/SVG/1.1/DTD/svg11.dtd">
<svg version="1.1" xmlns="http://www.w3.org/2000/svg" xmlns:xlink="http://www.w3.org/1999/xlink" viewBox="0 0 56.7102 36.0747">
 <g>
  <rect height="36.0747" opacity="0" width="56.7102" x="0" y="0"/>
  <path d="M43.8621 36.02C48.3547 36.02 51.7707 33.717 53.207 29.7549L53.3459 29.7549L53.3459 34.4839C53.3459 35.4751 53.9548 36.0747 54.8525 36.0747C55.7595 36.0747 56.3684 35.4583 56.3684 34.467L56.3684 10.1587C56.3684 9.17676 55.7595 8.52661 54.8525 8.52661C53.9548 8.52661 53.3459 9.17676 53.3459 10.1587L53.3459 14.9407L53.207 14.9407C51.801 11.0291 48.1931 8.56787 43.8621 8.56787C37.1702 8.56787 32.6528 14.114 32.6528 22.291C32.6528 30.5151 37.1702 36.02 43.8621 36.02ZM44.5208 33.2805C39.2756 33.2805 35.8547 28.9749 35.8547 22.291C35.8547 15.6223 39.2832 11.2905 44.5208 11.2905C49.7659 11.2905 53.2693 15.7974 53.2693 22.3835C53.2693 29.0034 49.8298 33.2805 44.5208 33.2805Z" fill="white" fill-opacity="0.85"/>
  <path d="M1.56641 36.02C2.53492 36.02 3.01075 35.6453 3.36866 34.6111L7.04786 24.7971L22.2241 24.7971L25.8957 34.6111C26.2537 35.6453 26.7295 36.02 27.6812 36.02C28.6648 36.02 29.2981 35.428 29.2981 34.4949C29.2981 34.1782 29.24 33.8708 29.0901 33.4792L16.9587 1.67676C16.541 0.588624 15.8049 0.00585914 14.636 0.00585914C13.5007 0.00585914 12.7402 0.56421 12.3394 1.65992L0.208008 33.4961C0.0581056 33.8801 0 34.1951 0 34.5117C0 35.4448 0.599611 36.02 1.56641 36.02ZM7.98682 21.949L14.5703 4.2544L14.6848 4.2544L21.2683 21.949Z" fill="white" fill-opacity="0.85"/>
 </g>
</svg>
