<?xml version="1.0" encoding="UTF-8"?>
<!--Generator: Apple Native CoreSVG 326-->
<!DOCTYPE svg
PUBLIC "-//W3C//DTD SVG 1.1//EN"
       "http://www.w3.org/Graphics/SVG/1.1/DTD/svg11.dtd">
<svg version="1.1" xmlns="http://www.w3.org/2000/svg" xmlns:xlink="http://www.w3.org/1999/xlink" viewBox="0 0 40.6714 25.4663">
 <g>
  <rect height="25.4663" opacity="0" width="40.6714" x="0" y="0"/>
  <path d="M31.0034 25.4443C33.8159 25.4443 35.9692 24.1919 37.0459 21.9067L37.1558 21.9067L37.1558 23.7744C37.1558 24.8071 37.793 25.4443 38.7158 25.4443C39.6606 25.4443 40.3198 24.7852 40.3198 23.7524L40.3198 7.97607C40.3198 6.94336 39.6606 6.26221 38.7158 6.26221C37.793 6.26221 37.1558 6.94336 37.1558 7.97607L37.1558 9.7998L37.0459 9.7998C35.9473 7.58057 33.728 6.28418 31.0034 6.28418C26.3892 6.28418 23.313 10.1294 23.313 15.8643C23.313 21.6211 26.3892 25.4443 31.0034 25.4443ZM31.8384 22.5659C28.6963 22.5659 26.7407 19.9951 26.7407 15.8643C26.7407 11.7334 28.6963 9.14062 31.8384 9.14062C35.0024 9.14062 37.0459 11.7993 37.0459 15.8862C37.0459 19.9731 35.0244 22.5659 31.8384 22.5659Z" fill="white" fill-opacity="0.85"/>
  <path d="M1.66992 25.4443C2.70264 25.4443 3.22998 25.0488 3.60352 23.9502L5.60303 18.3691L15.4028 18.3691L17.4023 23.9502C17.7759 25.0488 18.3032 25.4443 19.3359 25.4443C20.3687 25.4443 21.0498 24.8071 21.0498 23.8184C21.0498 23.4888 20.9839 23.1812 20.8301 22.7637L13.0518 1.82373C12.5903 0.593262 11.7773 0 10.5029 0C9.25049 0 8.4375 0.593262 7.99805 1.82373L0.219727 22.7856C0.065918 23.2031 0 23.4888 0 23.8403C0 24.8291 0.637207 25.4443 1.66992 25.4443ZM6.54785 15.4028L10.437 4.37256L10.5469 4.37256L14.436 15.4028Z" fill="white" fill-opacity="0.85"/>
 </g>
</svg>
