<?xml version="1.0" encoding="UTF-8"?>
<!--Generator: Apple Native CoreSVG 326-->
<!DOCTYPE svg
PUBLIC "-//W3C//DTD SVG 1.1//EN"
       "http://www.w3.org/Graphics/SVG/1.1/DTD/svg11.dtd">
<svg version="1.1" xmlns="http://www.w3.org/2000/svg" xmlns:xlink="http://www.w3.org/1999/xlink" viewBox="0 0 39.7538 25.454">
 <g>
  <rect height="25.454" opacity="0" width="39.7538" x="0" y="0"/>
  <path d="M30.861 25.3907C34.2589 25.3907 36.8393 23.5371 37.8211 20.4294L37.9151 20.4294L37.9151 24.67C37.9151 25.149 38.2043 25.454 38.6525 25.454C39.107 25.454 39.4023 25.1587 39.4023 24.6638L39.4023 6.68853C39.4023 6.19368 39.107 5.87638 38.6525 5.87638C38.2043 5.87638 37.9151 6.19368 37.9151 6.68853L37.9151 11.0118L37.8211 11.0118C36.8806 7.90663 34.1393 5.89835 30.861 5.89835C26.1044 5.89835 22.8384 9.85431 22.8384 15.6366C22.8384 21.4726 26.1044 25.3907 30.861 25.3907ZM31.1107 24.0468C27.0669 24.0468 24.3836 20.7008 24.3836 15.6366C24.3836 10.5724 27.0827 7.23611 31.1107 7.23611C35.1448 7.23611 37.8843 10.7491 37.8843 15.7535C37.8843 20.758 35.1984 24.0468 31.1107 24.0468Z" fill="white" fill-opacity="0.85"/>
  <path d="M0.768201 25.3907C1.21559 25.3907 1.44236 25.2009 1.61024 24.7192L4.59057 16.9392L15.83 16.9392L18.7945 24.7192C18.9782 25.2009 19.1891 25.3907 19.6365 25.3907C20.1155 25.3907 20.417 25.1015 20.417 24.6506C20.417 24.4951 20.3827 24.3457 20.308 24.1496L11.28 0.805119C11.0875 0.318174 10.7649 0.0254864 10.2182 0.0254864C9.67762 0.0254864 9.3234 0.302355 9.15288 0.805119L0.108989 24.1558C0.0342786 24.3518 0 24.4951 0 24.6568C0 25.1077 0.304994 25.3907 0.768201 25.3907ZM5.0608 15.5549L10.1681 2.18329L10.2463 2.18329L15.3378 15.5549Z" fill="white" fill-opacity="0.85"/>
 </g>
</svg>
