<svg width="25" height="16" viewBox="0 0 25 16" fill="none" xmlns="http://www.w3.org/2000/svg">
<path d="M12 14.5V14.4482C12.0001 14.1722 12.2239 13.9482 12.5 13.9482C12.7761 13.9482 12.9999 14.1722 13 14.4482V14.5C13 14.7761 12.7761 15 12.5 15C12.2239 15 12 14.7761 12 14.5ZM12 12.3848V12.2822C12 12.0061 12.2239 11.7822 12.5 11.7822C12.7761 11.7822 13 12.0061 13 12.2822V12.3848C13 12.6609 12.7761 12.8848 12.5 12.8848C12.2239 12.8848 12 12.6609 12 12.3848ZM12 10.2178V10.1152C12 9.83909 12.2239 9.61523 12.5 9.61523C12.7761 9.61523 13 9.83909 13 10.1152V10.2178C13 10.4939 12.7761 10.7178 12.5 10.7178C12.2239 10.7178 12 10.4939 12 10.2178ZM12 8.05176V7.94824C12.0001 7.67218 12.2239 7.44824 12.5 7.44824C12.7761 7.44824 12.9999 7.67218 13 7.94824V8.05176C12.9999 8.32782 12.7761 8.55176 12.5 8.55176C12.2239 8.55176 12.0001 8.32782 12 8.05176ZM12 5.88477V5.78223C12 5.50608 12.2239 5.28223 12.5 5.28223C12.7761 5.28223 13 5.50608 13 5.78223V5.88477C13 6.16091 12.7761 6.38477 12.5 6.38477C12.2239 6.38477 12 6.16091 12 5.88477ZM12 3.71777V3.61523C12 3.33909 12.2239 3.11523 12.5 3.11523C12.7761 3.11523 13 3.33909 13 3.61523V3.71777C13 3.99392 12.7761 4.21777 12.5 4.21777C12.2239 4.21777 12 3.99392 12 3.71777ZM12 1.55176V1.5C12 1.22386 12.2239 1 12.5 1C12.7761 1 13 1.22386 13 1.5V1.55176C12.9999 1.82782 12.7761 2.05176 12.5 2.05176C12.2239 2.05176 12.0001 1.82782 12 1.55176Z" fill="black"/>
<path d="M1.97852 13L5.54004 3.13574H7.19434L10.7559 13H9.14258L8.25391 10.334H4.48047L3.58496 13H1.97852ZM6.30566 4.86523L4.89062 9.10352H7.84375L6.42188 4.86523H6.30566ZM17.3747 13L13.861 3.13574H15.5221L18.1608 11.1543H18.277L20.9157 3.13574H22.5768L19.0632 13H17.3747Z" fill="black"/>
</svg>
